<?xml version="1.0" encoding="UTF-8"?>
<!DOCTYPE svg PUBLIC "-//W3C//DTD SVG 1.1//EN" "http://www.w3.org/Graphics/SVG/1.1/DTD/svg11.dtd">
<svg xmlns="http://www.w3.org/2000/svg" version="1.1" width="173px" height="168px" style="shape-rendering:geometricPrecision; text-rendering:geometricPrecision; image-rendering:optimizeQuality; fill-rule:evenodd; clip-rule:evenodd" xmlns:xlink="http://www.w3.org/1999/xlink">
<g><path style="opacity:0.365" fill="#241930" d="M 27.5,-0.5 C 28.8333,-0.5 30.1667,-0.5 31.5,-0.5C 29.4855,0.923808 27.1522,1.59047 24.5,1.5C 25.5,0.833333 26.5,0.166667 27.5,-0.5 Z"/></g>
<g><path style="opacity:0.998" fill="#010056" d="M 31.5,-0.5 C 68.5,-0.5 105.5,-0.5 142.5,-0.5C 143.5,0.166667 144.5,0.833333 145.5,1.5C 146.78,2.93127 148.447,3.59794 150.5,3.5C 152.062,3.73286 153.395,4.39952 154.5,5.5C 155.539,7.53112 157.205,8.86446 159.5,9.5C 159.738,11.4044 160.738,12.7377 162.5,13.5C 163.08,15.7488 164.413,17.4154 166.5,18.5C 167.074,22.3246 168.241,25.9913 170,29.5C 170.5,65.8318 170.667,102.165 170.5,138.5C 169.262,140.214 168.595,142.214 168.5,144.5C 166.755,146.033 165.755,148.033 165.5,150.5C 165.5,151.167 165.167,151.5 164.5,151.5C 163.094,151.973 162.427,152.973 162.5,154.5C 161.833,155.833 160.833,156.833 159.5,157.5C 157.251,158.08 155.585,159.413 154.5,161.5C 152.326,161.75 150.659,162.75 149.5,164.5C 146.123,164.959 142.789,165.626 139.5,166.5C 102.498,166.667 65.4985,166.5 28.5,166C 26.3225,164.798 23.9892,164.298 21.5,164.5C 21.0269,163.094 20.0269,162.427 18.5,162.5C 17.7377,160.738 16.4044,159.738 14.5,159.5C 13.7377,157.738 12.4044,156.738 10.5,156.5C 10.2624,154.596 9.26242,153.262 7.5,152.5C 5.73758,151.738 4.73758,150.404 4.5,148.5C 3.54118,144.617 2.20784,140.95 0.5,137.5C 0.166667,137.5 -0.166667,137.5 -0.5,137.5C -0.5,101.5 -0.5,65.5 -0.5,29.5C -0.166667,29.5 0.166667,29.5 0.5,29.5C 2.64175,26.1996 3.97509,22.533 4.5,18.5C 6.26242,17.7377 7.26242,16.4044 7.5,14.5C 10.5,12.1667 13.1667,9.5 15.5,6.5C 16.8993,5.11028 18.5659,4.11028 20.5,3.5C 22.153,3.3404 23.4863,2.67373 24.5,1.5C 27.1522,1.59047 29.4855,0.923808 31.5,-0.5 Z"/></g>
<g><path style="opacity:0.349" fill="#251931" d="M 24.5,1.5 C 23.4863,2.67373 22.153,3.3404 20.5,3.5C 21.287,1.89578 22.6203,1.22911 24.5,1.5 Z"/></g>
<g><path style="opacity:0.275" fill="#130d37" d="M 145.5,1.5 C 147.553,1.40206 149.22,2.06873 150.5,3.5C 148.447,3.59794 146.78,2.93127 145.5,1.5 Z"/></g>
<g><path style="opacity:0.294" fill="#160f33" d="M 154.5,5.5 C 156.754,6.1237 158.421,7.45703 159.5,9.5C 157.205,8.86446 155.539,7.53112 154.5,5.5 Z"/></g>
<g><path style="opacity:0.373" fill="#221635" d="M 15.5,6.5 C 13.1667,9.5 10.5,12.1667 7.5,14.5C 9.16667,10.8333 11.8333,8.16667 15.5,6.5 Z"/></g>
<g><path style="opacity:0.373" fill="#140e36" d="M 159.5,9.5 C 161.262,10.2623 162.262,11.5956 162.5,13.5C 160.738,12.7377 159.738,11.4044 159.5,9.5 Z"/></g>
<g><path style="opacity:0.682" fill="#120c3b" d="M 162.5,13.5 C 164.587,14.5846 165.92,16.2512 166.5,18.5C 164.413,17.4154 163.08,15.7488 162.5,13.5 Z"/></g>
<g><path style="opacity:0.482" fill="#211435" d="M 7.5,14.5 C 7.26242,16.4044 6.26242,17.7377 4.5,18.5C 4.73758,16.5956 5.73758,15.2623 7.5,14.5 Z"/></g>
<g><path style="opacity:0.412" fill="#201436" d="M 4.5,18.5 C 3.97509,22.533 2.64175,26.1996 0.5,29.5C 0.666696,25.3266 2.00003,21.6599 4.5,18.5 Z"/></g>
<g><path style="opacity:0.156" fill="#191333" d="M 166.5,18.5 C 168.656,21.4374 170.156,24.7708 171,28.5C 171.168,60.6693 171.668,92.6693 172.5,124.5C 172.5,127.833 172.5,131.167 172.5,134.5C 171.833,135.833 171.167,137.167 170.5,138.5C 170.667,102.165 170.5,65.8318 170,29.5C 168.241,25.9913 167.074,22.3246 166.5,18.5 Z"/></g>
<g><path style="opacity:1" fill="#9494f2" d="M 42.5,102.5 C 40.4624,106.94 38.7958,111.607 37.5,116.5C 32.6946,117.487 27.6946,117.821 22.5,117.5C 28.4442,97.2602 35.2775,77.2602 43,57.5C 44.5691,53.2972 45.4024,48.9639 45.5,44.5C 52.5,44.5 59.5,44.5 66.5,44.5C 74.9845,68.7665 83.3179,93.0998 91.5,117.5C 86.1563,117.666 80.8229,117.499 75.5,117C 72.9868,111.622 70.9868,106.122 69.5,100.5C 60.1045,99.8623 51.1045,100.529 42.5,102.5 Z"/></g>
<g><path style="opacity:1" fill="#2c2a82" d="M 116.5,61.5 C 120.646,60.353 124.98,60.1864 129.5,61C 131.32,61.2004 132.653,62.0337 133.5,63.5C 127.989,61.7897 122.323,61.123 116.5,61.5 Z"/></g>
<g><path style="opacity:1" fill="#9696f4" d="M 116.5,61.5 C 122.323,61.123 127.989,61.7897 133.5,63.5C 137.472,65.4722 140.472,68.4722 142.5,72.5C 144.205,79.0144 144.871,85.6811 144.5,92.5C 144.5,93.1667 144.167,93.5 143.5,93.5C 132.5,93.5 121.5,93.5 110.5,93.5C 110.263,94.791 110.596,95.791 111.5,96.5C 112.722,101.222 115.722,104.055 120.5,105C 127.277,105.799 133.943,105.299 140.5,103.5C 140.666,107.514 140.499,111.514 140,115.5C 138.698,116.085 137.531,116.751 136.5,117.5C 129.869,118.331 123.202,118.664 116.5,118.5C 104.977,116.645 97.9769,109.978 95.5,98.5C 95.0912,91.017 95.7579,83.6836 97.5,76.5C 101.186,68.1471 107.52,63.1471 116.5,61.5 Z"/></g>
<g><path style="opacity:1" fill="#07065c" d="M 63.5,82.5 C 63.5,83.5 63.5,84.5 63.5,85.5C 58.5,85.5 53.5,85.5 48.5,85.5C 48.5,84.5 48.5,83.5 48.5,82.5C 49.6373,78.4214 50.9706,74.4214 52.5,70.5C 53.9238,68.4855 54.5905,66.1522 54.5,63.5C 54.9467,60.4761 55.78,60.1428 57,62.5C 59.679,69.0362 61.8457,75.7029 63.5,82.5 Z"/></g>
<g><path style="opacity:1" fill="#403e98" d="M 54.5,63.5 C 54.5905,66.1522 53.9238,68.4855 52.5,70.5C 52.4095,67.8478 53.0762,65.5145 54.5,63.5 Z"/></g>
<g><path style="opacity:1" fill="#0a085f" d="M 116.5,73.5 C 124.879,71.901 129.546,75.2343 130.5,83.5C 123.833,83.5 117.167,83.5 110.5,83.5C 110.992,79.1691 112.992,75.8358 116.5,73.5 Z"/></g>
<g><path style="opacity:1" fill="#6666c2" d="M 142.5,72.5 C 143.793,73.842 144.626,75.5087 145,77.5C 145.816,82.6842 145.65,87.6842 144.5,92.5C 144.871,85.6811 144.205,79.0144 142.5,72.5 Z"/></g>
<g><path style="opacity:1" fill="#3c3b95" d="M 48.5,82.5 C 48.5,83.5 48.5,84.5 48.5,85.5C 53.5,85.5 58.5,85.5 63.5,85.5C 63.5,84.5 63.5,83.5 63.5,82.5C 64.4345,83.5676 64.7678,84.901 64.5,86.5C 58.8333,86.5 53.1667,86.5 47.5,86.5C 47.2322,84.901 47.5655,83.5676 48.5,82.5 Z"/></g>
<g><path style="opacity:1" fill="#6565c0" d="M 97.5,76.5 C 95.7579,83.6836 95.0912,91.017 95.5,98.5C 94.3483,93.0154 94.1816,87.3487 95,81.5C 95.3736,79.5087 96.207,77.842 97.5,76.5 Z"/></g>
<g><path style="opacity:1" fill="#37378f" d="M 143.5,93.5 C 132.628,93.8417 121.961,94.8417 111.5,96.5C 110.596,95.791 110.263,94.791 110.5,93.5C 121.5,93.5 132.5,93.5 143.5,93.5 Z"/></g>
<g><path style="opacity:1" fill="#42409a" d="M 42.5,102.5 C 41.9906,107.703 40.3239,112.37 37.5,116.5C 38.7958,111.607 40.4624,106.94 42.5,102.5 Z"/></g>
<g><path style="opacity:1" fill="#2b2980" d="M 136.5,117.5 C 136.389,118.117 136.056,118.617 135.5,119C 128.986,119.82 122.653,119.653 116.5,118.5C 123.202,118.664 129.869,118.331 136.5,117.5 Z"/></g>
<g><path style="opacity:0.016" fill="#211729" d="M 0.5,137.5 C 2.20784,140.95 3.54118,144.617 4.5,148.5C 2.00003,145.34 0.666696,141.673 0.5,137.5 Z"/></g>
<g><path style="opacity:0.008" fill="#281f28" d="M 170.5,138.5 C 170.741,140.898 170.074,142.898 168.5,144.5C 168.595,142.214 169.262,140.214 170.5,138.5 Z"/></g>
<g><path style="opacity:0.09" fill="#281e28" d="M 168.5,144.5 C 168.539,147.089 167.539,149.089 165.5,150.5C 165.755,148.033 166.755,146.033 168.5,144.5 Z"/></g>
<g><path style="opacity:0.035" fill="#281f25" d="M 164.5,151.5 C 164.573,153.027 163.906,154.027 162.5,154.5C 162.427,152.973 163.094,151.973 164.5,151.5 Z"/></g>
<g><path style="opacity:0.067" fill="#201627" d="M 7.5,152.5 C 9.26242,153.262 10.2624,154.596 10.5,156.5C 8.73758,155.738 7.73758,154.404 7.5,152.5 Z"/></g>
<g><path style="opacity:0.51" fill="#1a1130" d="M 10.5,156.5 C 12.4044,156.738 13.7377,157.738 14.5,159.5C 12.5956,159.262 11.2623,158.262 10.5,156.5 Z"/></g>
<g><path style="opacity:0.467" fill="#1a1031" d="M 14.5,159.5 C 16.4044,159.738 17.7377,160.738 18.5,162.5C 16.5956,162.262 15.2623,161.262 14.5,159.5 Z"/></g>
<g><path style="opacity:0.024" fill="#281e24" d="M 159.5,157.5 C 158.415,159.587 156.749,160.92 154.5,161.5C 155.585,159.413 157.251,158.08 159.5,157.5 Z"/></g>
<g><path style="opacity:0.161" fill="#281d24" d="M 154.5,161.5 C 153.341,163.25 151.674,164.25 149.5,164.5C 150.659,162.75 152.326,161.75 154.5,161.5 Z"/></g>
<g><path style="opacity:0.165" fill="#211622" d="M 18.5,162.5 C 20.0269,162.427 21.0269,163.094 21.5,164.5C 19.9731,164.573 18.9731,163.906 18.5,162.5 Z"/></g>
<g><path style="opacity:0.024" fill="#261b25" d="M 149.5,164.5 C 147.5,165.5 145.5,166.5 143.5,167.5C 142.167,167.5 140.833,167.5 139.5,167.5C 139.5,167.167 139.5,166.833 139.5,166.5C 142.789,165.626 146.123,164.959 149.5,164.5 Z"/></g>
<g><path style="opacity:0.512" fill="#120c3c" d="M 21.5,164.5 C 23.9892,164.298 26.3225,164.798 28.5,166C 65.4985,166.5 102.498,166.667 139.5,166.5C 139.5,166.833 139.5,167.167 139.5,167.5C 102.167,167.5 64.8333,167.5 27.5,167.5C 25.5,166.5 23.5,165.5 21.5,164.5 Z"/></g>
</svg>
