<?xml version="1.0" standalone="no"?>
<!DOCTYPE svg PUBLIC "-//W3C//DTD SVG 20010904//EN"
 "http://www.w3.org/TR/2001/REC-SVG-20010904/DTD/svg10.dtd">
<svg version="1.0" xmlns="http://www.w3.org/2000/svg"
 width="172.000000pt" height="169.000000pt" viewBox="0 0 172.000000 169.000000"
 preserveAspectRatio="xMidYMid meet">

<g transform="translate(0.000000,169.000000) scale(0.100000,-0.100000)"
fill="#000000" stroke="none">
<path d="M327 1669 c-32 -5 -78 -17 -102 -28 -68 -30 -148 -111 -181 -184
l-29 -62 0 -555 0 -555 27 -57 c56 -120 162 -199 295 -218 87 -12 909 -13
1027 0 110 11 176 42 240 110 26 28 59 76 74 108 l27 57 0 555 0 555 -29 62
c-33 72 -113 154 -180 183 -24 11 -74 24 -112 30 -83 12 -974 11 -1057 -1z
m475 -459 c100 -37 148 -111 148 -227 0 -77 -21 -133 -66 -175 -46 -43 -100
-60 -206 -66 l-97 -5 -3 -116 -3 -116 -70 0 -70 0 -3 362 -2 362 72 4 c128 7
243 -1 300 -23z m583 -215 l0 -70 -55 -8 c-30 -4 -70 -15 -90 -25 l-35 -17 -3
-188 -2 -188 -73 3 -72 3 -3 278 -2 277 58 0 c63 0 82 -11 82 -47 0 -13 2 -23
5 -23 2 0 24 14 48 31 43 30 96 49 127 45 12 -1 15 -16 15 -71z"/>
<path d="M580 980 l0 -120 48 0 c109 0 171 39 178 110 9 88 -42 130 -158 130
l-68 0 0 -120z"/>
</g>
</svg>
